<?xml version="1.0" encoding="UTF-8" standalone="no"?>
<svg
   xmlns:dc="http://purl.org/dc/elements/1.1/"
   xmlns:cc="http://web.resource.org/cc/"
   xmlns:rdf="http://www.w3.org/1999/02/22-rdf-syntax-ns#"
   xmlns:svg="http://www.w3.org/2000/svg"
   xmlns="http://www.w3.org/2000/svg"
   xmlns:sodipodi="http://sodipodi.sourceforge.net/DTD/sodipodi-0.dtd"
   xmlns:inkscape="http://www.inkscape.org/namespaces/inkscape"
   width="3000"
   height="2000"
   viewBox="0 -410 3080 1900"
   id="svg2"
   sodipodi:version="0.32"
   inkscape:version="0.45.1"
   sodipodi:docname="Mu_uc_lc.svg"
   inkscape:output_extension="org.inkscape.output.svg.inkscape"
   sodipodi:docbase="C:\Documents and Settings\Flanker\Desktop"
   version="1.0">
  <metadata
     id="metadata15">
    <rdf:RDF>
      <cc:Work
         rdf:about="">
        <dc:format>image/svg+xml</dc:format>
        <dc:type
           rdf:resource="http://purl.org/dc/dcmitype/StillImage" />
      </cc:Work>
    </rdf:RDF>
  </metadata>
  <defs
     id="defs13" />
  <sodipodi:namedview
     inkscape:window-height="1005"
     inkscape:window-width="1280"
     inkscape:pageshadow="2"
     inkscape:pageopacity="0.0"
     guidetolerance="10.0"
     gridtolerance="10.0"
     objecttolerance="10.0"
     borderopacity="1.0"
     bordercolor="#666666"
     pagecolor="#ffffff"
     id="base"
     inkscape:zoom="0.19947368"
     inkscape:cx="1540"
     inkscape:cy="1351.0554"
     inkscape:window-x="-4"
     inkscape:window-y="-4"
     inkscape:current-layer="svg2"
     width="3000px"
     height="2000px"
     inkscape:showpageshadow="false" />
  <text
     xml:space="preserve"
     style="font-size:12px;font-style:normal;font-weight:normal;fill:#000000;fill-opacity:1;stroke:none;stroke-width:1px;stroke-linecap:butt;stroke-linejoin:miter;stroke-opacity:1;font-family:Lello"
     x="-471.24011"
     y="-946.41162"
     id="text2171"><tspan
       sodipodi:role="line"
       id="tspan2173"
       x="-471.24011"
       y="-946.41162"></tspan></text>
  <path
     style="font-size:2050.27807617px;font-style:normal;font-weight:normal;fill:#000000;fill-opacity:1;stroke:none;stroke-width:1px;stroke-linecap:butt;stroke-linejoin:miter;stroke-opacity:1;font-family:Times New Roman"
     d="M 1663.1368,-359.99997 L 771.14569,915.41715 L 1327.7642,915.41715 C 1413.1915,915.41723 1478.7643,896.72982 1524.4827,859.35486 C 1570.1991,821.98017 1610.7441,746.22942 1646.1179,632.10236 L 1679.1546,638.10903 L 1615.0834,997.50836 L 509.85537,997.50836 L 509.85537,960.46721 L 1380.8231,-278.90987 L 946.34035,-278.90987 C 874.25987,-278.9086 822.03523,-271.06656 789.66627,-255.38373 C 757.29669,-239.6984 732.60261,-217.00655 715.58395,-187.30809 C 698.56483,-157.60727 683.0476,-102.04559 669.03223,-20.62289 L 630.98996,-20.62289 L 659.02111,-359.99997 L 1663.1368,-359.99997 z M 2091.6129,-419.0656 L 2107.6307,-383.02556 C 2041.557,-355.66047 2008.5203,-316.61712 2008.5206,-265.89541 C 2008.5203,-230.52155 2020.7005,-203.49154 2045.0612,-184.80531 C 2069.4213,-166.11672 2097.2855,-156.77301 2128.6541,-156.77417 C 2131.9907,-156.77301 2136.9963,-157.10672 2143.6708,-157.77528 C 2191.7237,-208.4971 2249.7882,-256.88415 2317.8643,-302.93657 C 2385.9393,-348.98639 2439.9993,-372.01195 2480.0445,-372.01332 C 2510.7445,-372.01195 2526.0949,-359.66491 2526.0957,-334.97217 C 2526.0949,-290.92193 2494.7267,-247.37359 2431.9911,-204.327 C 2369.2541,-161.27802 2282.1574,-131.07782 2170.7008,-113.72634 C 1990.5003,71.146668 1900.4003,288.38783 1900.4005,537.9978 C 1900.4003,640.77902 1920.7562,717.69774 1961.4683,768.75419 C 2002.1799,819.8111 2074.26,845.33944 2177.7086,845.33929 C 2189.0541,845.33944 2215.083,844.00462 2255.7953,841.33484 C 2301.8459,839.33277 2333.2141,838.33166 2349.8999,838.3315 C 2427.986,838.33166 2484.2151,863.69315 2518.5873,914.41604 C 2552.958,965.1391 2570.1438,1026.5406 2570.1446,1098.6207 C 2570.1438,1204.071 2543.4475,1287.3301 2490.0556,1348.3982 C 2436.6623,1409.4657 2363.5811,1439.9996 2270.812,1440 C 2183.3811,1439.9996 2139.6659,1410.6336 2139.6663,1351.9021 C 2139.6659,1305.8507 2163.0252,1282.8251 2209.7442,1282.8254 C 2223.0919,1282.8251 2248.1196,1288.4981 2284.8276,1299.8443 C 2315.5278,1309.8551 2342.8915,1314.8607 2366.9188,1314.861 C 2408.2974,1314.8607 2441.1673,1298.676 2465.5284,1266.307 C 2489.888,1233.9375 2502.0682,1197.3969 2502.069,1156.6852 C 2502.0682,1111.3014 2488.7201,1078.2647 2462.0245,1057.5751 C 2435.3275,1036.8854 2391.2786,1026.5406 2329.8777,1026.5406 C 2315.8615,1026.5406 2281.8237,1028.5428 2227.7642,1032.5473 C 2203.0696,1033.8821 2182.7137,1034.5495 2166.6963,1034.5495 C 1927.0966,1034.5495 1807.2969,889.05463 1807.297,598.06454 C 1807.2969,329.7671 1904.7384,92.50371 2099.6218,-113.72634 C 2049.5659,-115.06004 2008.0198,-128.07449 1974.9833,-152.76972 C 1941.9464,-177.46265 1925.4281,-213.16895 1925.4283,-259.88874 C 1925.4281,-336.63935 1980.8229,-389.69825 2091.6129,-419.0656 L 2091.6129,-419.0656 z "
     id="text2175" />
</svg>
