<?xml version="1.0" encoding="UTF-8" standalone="no"?>
<svg
   xmlns:dc="http://purl.org/dc/elements/1.1/"
   xmlns:cc="http://web.resource.org/cc/"
   xmlns:rdf="http://www.w3.org/1999/02/22-rdf-syntax-ns#"
   xmlns:svg="http://www.w3.org/2000/svg"
   xmlns="http://www.w3.org/2000/svg"
   xmlns:sodipodi="http://sodipodi.sourceforge.net/DTD/sodipodi-0.dtd"
   xmlns:inkscape="http://www.inkscape.org/namespaces/inkscape"
   width="3000"
   height="2000"
   viewBox="0 -410 3080 1900"
   id="svg2"
   sodipodi:version="0.32"
   inkscape:version="0.45.1"
   sodipodi:docname="Mu_uc_lc.svg"
   inkscape:output_extension="org.inkscape.output.svg.inkscape"
   sodipodi:docbase="C:\Documents and Settings\Flanker\Desktop"
   version="1.0">
  <metadata
     id="metadata15">
    <rdf:RDF>
      <cc:Work
         rdf:about="">
        <dc:format>image/svg+xml</dc:format>
        <dc:type
           rdf:resource="http://purl.org/dc/dcmitype/StillImage" />
      </cc:Work>
    </rdf:RDF>
  </metadata>
  <defs
     id="defs13" />
  <sodipodi:namedview
     inkscape:window-height="1005"
     inkscape:window-width="1280"
     inkscape:pageshadow="2"
     inkscape:pageopacity="0.0"
     guidetolerance="10.0"
     gridtolerance="10.0"
     objecttolerance="10.0"
     borderopacity="1.0"
     bordercolor="#666666"
     pagecolor="#ffffff"
     id="base"
     inkscape:zoom="0.19947368"
     inkscape:cx="1540"
     inkscape:cy="1351.0554"
     inkscape:window-x="-4"
     inkscape:window-y="-4"
     inkscape:current-layer="svg2"
     width="3000px"
     height="2000px"
     inkscape:showpageshadow="false" />
  <text
     xml:space="preserve"
     style="font-size:12px;font-style:normal;font-weight:normal;fill:#000000;fill-opacity:1;stroke:none;stroke-width:1px;stroke-linecap:butt;stroke-linejoin:miter;stroke-opacity:1;font-family:Lello"
     x="-471.24011"
     y="-946.41162"
     id="text2171"><tspan
       sodipodi:role="line"
       id="tspan2173"
       x="-471.24011"
       y="-946.41162"></tspan></text>
  <path
     style="font-size:2050.27807617px;font-style:normal;font-weight:normal;fill:#000000;fill-opacity:1;stroke:none;stroke-width:1px;stroke-linecap:butt;stroke-linejoin:miter;stroke-opacity:1;font-family:Times New Roman"
     d="M 907.29697,-285.91766 L 907.29697,250.67855 L 1205.6285,250.67855 C 1283.047,250.6793 1334.7711,238.99967 1360.8009,215.63962 C 1395.5052,184.93966 1414.86,130.87964 1418.8654,53.459423 L 1455.9065,53.459423 L 1455.9065,525.98445 L 1418.8654,525.98445 C 1409.5207,459.91157 1400.177,417.53119 1390.8342,398.84318 C 1378.82,375.48452 1359.1315,357.13081 1331.7686,343.782 C 1304.404,330.43451 1262.3574,323.76043 1205.6285,323.75976 L 907.29697,323.75976 L 907.29697,771.25697 C 907.29655,831.32388 909.96618,867.86444 915.30587,880.87877 C 920.6447,893.89334 929.9884,904.23816 943.33702,911.91326 C 956.68471,919.58853 982.04619,923.42612 1019.4216,923.42605 L 1249.6774,923.42605 C 1326.4285,923.42612 1382.157,918.08686 1416.8632,907.40825 C 1451.5674,896.72982 1484.9378,875.70648 1516.9744,844.33817 C 1558.3526,802.95906 1600.733,740.55645 1644.1157,657.13017 L 1684.1602,657.13017 L 1567.03,997.50836 L 520.86761,997.50836 L 520.86761,960.46721 L 568.921,960.46721 C 600.95648,960.46724 631.32352,952.79206 660.02223,937.44162 C 681.37909,926.76316 695.8952,910.74538 703.57061,889.38823 C 711.24558,868.0313 715.08317,824.3161 715.08341,758.24251 L 715.08341,-123.73746 C 715.08317,-209.83192 706.40687,-262.89082 689.05448,-282.91432 C 665.0276,-309.60935 624.98315,-322.9575 568.921,-322.95882 L 520.86761,-322.95882 L 520.86761,-359.99997 L 1567.03,-359.99997 L 1582.0467,-62.669608 L 1543.0033,-62.669608 C 1528.9867,-134.08116 1513.4695,-183.13561 1496.4516,-209.83312 C 1479.4317,-236.52822 1454.237,-256.88415 1420.8676,-270.90098 C 1394.1704,-280.91082 1347.1181,-285.91638 1279.7108,-285.91766 L 907.29697,-285.91766 z M 2048.5651,511.96888 C 1917.0855,465.25083 1851.3458,394.50563 1851.346,299.73306 C 1851.3458,224.98411 1886.2179,165.25113 1955.9622,120.53395 C 2025.7061,75.818521 2112.3022,53.460367 2215.7509,53.459423 C 2309.8548,53.460367 2384.6045,68.977593 2440,100.01115 C 2495.3941,131.0465 2523.0916,168.25447 2523.0923,211.63517 C 2523.0916,234.32782 2514.4153,254.18319 2497.0634,271.20136 C 2479.7101,288.22098 2459.6878,296.73042 2436.9967,296.72972 C 2399.6212,296.73042 2368.9204,270.70153 2344.8943,218.64296 C 2311.5234,146.56372 2261.4678,110.52371 2194.7275,110.52283 C 2142.0018,110.52371 2098.6203,127.87631 2064.5829,162.58067 C 2030.5448,197.2867 2013.5259,245.67374 2013.5262,307.74196 C 2013.5259,429.87823 2076.5959,490.94602 2202.7364,490.94552 C 2216.0841,490.94602 2231.4344,489.61121 2248.7876,486.94107 C 2278.8204,482.93713 2302.1796,480.93491 2318.8654,480.93439 C 2359.5767,480.93491 2379.9326,492.61454 2379.9333,515.97333 C 2379.9326,542.0027 2359.243,555.01715 2317.8643,555.01671 C 2303.1808,555.01715 2281.1563,552.68122 2251.7909,548.00892 C 2229.7659,544.00492 2212.747,542.0027 2200.7342,542.00225 C 2067.2522,542.0027 2000.5114,610.07827 2000.5117,746.22916 C 2000.5114,812.30276 2018.1977,865.52852 2053.5707,905.90658 C 2088.9429,946.28483 2138.3311,966.47391 2201.7353,966.47388 C 2281.1563,966.47391 2333.8815,925.42835 2359.911,843.33706 C 2373.2586,799.95572 2388.1084,769.92238 2404.4605,753.23695 C 2420.8113,736.55201 2442.6689,728.20941 2470.0334,728.20914 C 2492.7245,728.20941 2513.2473,736.38515 2531.6018,752.73639 C 2549.9547,769.08812 2559.1316,789.94461 2559.1324,815.30592 C 2559.1316,876.04019 2525.0938,926.2626 2457.0189,965.97332 C 2388.9426,1005.6841 2306.5178,1025.5395 2209.7442,1025.5395 C 2103.6259,1025.5395 2009.3546,1000.178 1926.9299,949.45497 C 1844.5049,898.73204 1803.2925,830.99018 1803.2926,746.22916 C 1803.2925,640.11161 1885.0499,562.02493 2048.5651,511.96888 L 2048.5651,511.96888 z "
     id="text2175" />
</svg>
