<?xml version="1.0" encoding="UTF-8" standalone="no"?>
<svg
   xmlns:dc="http://purl.org/dc/elements/1.1/"
   xmlns:cc="http://web.resource.org/cc/"
   xmlns:rdf="http://www.w3.org/1999/02/22-rdf-syntax-ns#"
   xmlns:svg="http://www.w3.org/2000/svg"
   xmlns="http://www.w3.org/2000/svg"
   xmlns:sodipodi="http://sodipodi.sourceforge.net/DTD/sodipodi-0.dtd"
   xmlns:inkscape="http://www.inkscape.org/namespaces/inkscape"
   width="3000"
   height="2000"
   viewBox="0 -410 3080 1900"
   id="svg2"
   sodipodi:version="0.32"
   inkscape:version="0.45.1"
   sodipodi:docname="Mu_uc_lc.svg"
   inkscape:output_extension="org.inkscape.output.svg.inkscape"
   sodipodi:docbase="C:\Documents and Settings\Flanker\Desktop"
   version="1.0">
  <metadata
     id="metadata15">
    <rdf:RDF>
      <cc:Work
         rdf:about="">
        <dc:format>image/svg+xml</dc:format>
        <dc:type
           rdf:resource="http://purl.org/dc/dcmitype/StillImage" />
      </cc:Work>
    </rdf:RDF>
  </metadata>
  <defs
     id="defs13" />
  <sodipodi:namedview
     inkscape:window-height="1005"
     inkscape:window-width="1280"
     inkscape:pageshadow="2"
     inkscape:pageopacity="0.0"
     guidetolerance="10.0"
     gridtolerance="10.0"
     objecttolerance="10.0"
     borderopacity="1.0"
     bordercolor="#666666"
     pagecolor="#ffffff"
     id="base"
     inkscape:zoom="0.19947368"
     inkscape:cx="1540"
     inkscape:cy="1351.0554"
     inkscape:window-x="-4"
     inkscape:window-y="-4"
     inkscape:current-layer="svg2"
     width="3000px"
     height="2000px"
     inkscape:showpageshadow="false" />
  <text
     xml:space="preserve"
     style="font-size:12px;font-style:normal;font-weight:normal;fill:#000000;fill-opacity:1;stroke:none;stroke-width:1px;stroke-linecap:butt;stroke-linejoin:miter;stroke-opacity:1;font-family:Lello"
     x="-471.24011"
     y="-946.41162"
     id="text2171"><tspan
       sodipodi:role="line"
       id="tspan2173"
       x="-471.24011"
       y="-946.41162"></tspan></text>
  <path
     style="font-size:2050.27807617px;font-style:normal;font-weight:normal;fill:#000000;fill-opacity:1;stroke:none;stroke-width:1px;stroke-linecap:butt;stroke-linejoin:miter;stroke-opacity:1;font-family:Times New Roman"
     d="M 514.86094,-359.99997 L 1591.0567,-359.99997 L 1591.0567,-28.631789 L 1553.0144,-28.631789 C 1549.0088,-83.358182 1530.9888,-123.23578 1498.9544,-148.26471 C 1466.9177,-173.29135 1416.5284,-185.80524 1347.7864,-185.80643 L 752.12457,-185.80643 C 624.64936,-185.80524 558.24231,-133.41375 552.90321,-28.631789 L 514.86094,-28.631789 L 514.86094,-359.99997 z M 699.06561,97.508366 L 737.10788,97.508366 C 737.10754,158.91076 751.79051,198.62151 781.15683,216.64074 C 810.52237,234.66152 857.5746,243.67152 922.31367,243.67077 L 1183.604,243.67077 C 1249.6765,243.67152 1297.0625,234.66152 1325.7619,216.64074 C 1354.4595,198.62151 1368.8088,158.91076 1368.8098,97.508366 L 1405.8509,97.508366 L 1405.8509,547.00781 L 1368.8098,547.00781 C 1368.8088,493.61565 1356.6286,455.74027 1332.2692,433.38156 C 1307.9079,411.02397 1258.3528,399.84489 1183.604,399.84429 L 922.31367,399.84429 C 844.89386,399.84489 794.67144,411.52452 771.64626,434.88323 C 748.62032,458.24305 737.10754,495.61788 737.10788,547.00781 L 699.06561,547.00781 L 699.06561,97.508366 z M 472.81422,616.08456 L 509.85538,616.08456 L 509.85538,640.11126 C 509.85526,690.83459 518.36471,729.21052 535.38375,755.23918 C 552.4025,781.26831 574.26009,798.45406 600.9566,806.79646 C 627.6527,815.13925 670.36678,819.31054 729.09898,819.31036 L 1387.8309,819.31036 C 1460.5773,819.31054 1513.3025,806.9635 1546.0067,782.26921 C 1578.7085,757.57534 1595.06,710.18941 1595.0612,640.11126 L 1595.0612,616.08456 L 1633.1034,616.08456 L 1633.1034,997.50836 L 472.81422,997.50836 L 472.81422,616.08456 z M 2075.5951,-423.07005 L 2075.5951,-385.02778 C 2010.1888,-375.68269 1977.4858,-346.98417 1977.4861,-298.93212 C 1977.4858,-246.87303 2014.8607,-213.50266 2089.6107,-198.82089 C 2132.3244,-244.87081 2182.7137,-285.41582 2240.7786,-320.45604 C 2298.8426,-355.49362 2350.5667,-373.01306 2395.9511,-373.01443 C 2429.9882,-373.01306 2447.0071,-357.66269 2447.0078,-326.96327 C 2447.0071,-286.25008 2413.6367,-246.20563 2346.8966,-206.82979 C 2280.1552,-167.45154 2200.4,-147.0956 2107.6307,-145.76193 C 2052.9029,-90.365962 2025.5392,-31.634096 2025.5395,30.43384 C 2025.5392,95.840748 2057.5747,149.56706 2121.6463,191.61293 C 2217.7526,138.88854 2319.1985,112.52594 2425.9844,112.52505 C 2499.3985,112.52594 2536.106,130.87964 2536.1068,167.58623 C 2536.106,192.28114 2516.7511,213.30448 2478.0423,230.65631 C 2439.3319,248.00967 2383.6033,256.68597 2310.8565,256.68523 C 2250.1218,256.68597 2191.0563,252.34782 2133.6596,243.67077 C 1958.131,355.79599 1870.3669,482.93713 1870.3671,625.09457 C 1870.3669,687.83125 1892.3914,739.88904 1936.4405,781.2681 C 1980.4892,822.64758 2051.9018,843.33722 2150.6785,843.33706 C 2168.0307,843.33722 2191.39,842.3361 2220.7564,840.33372 C 2297.5078,834.32721 2349.2318,831.32388 2375.9288,831.32371 C 2456.6845,831.32388 2515.4163,857.35277 2552.1246,909.41048 C 2588.8312,961.46835 2607.1849,1026.5406 2607.1858,1104.6274 C 2607.1849,1214.0821 2577.1515,1297.3412 2517.0857,1354.4049 C 2457.0182,1411.4679 2389.2763,1439.9996 2313.8598,1440 C 2273.8148,1439.9996 2240.7781,1431.8238 2214.7497,1415.4728 C 2188.7203,1399.1209 2175.7059,1376.9296 2175.7063,1348.8988 C 2175.7059,1328.8762 2182.5468,1312.8584 2196.2291,1300.8454 C 2209.9105,1288.8318 2225.4277,1282.8251 2242.7809,1282.8254 C 2254.7937,1282.8251 2271.8126,1286.4958 2293.8376,1293.8376 C 2335.2163,1307.1855 2368.253,1313.8595 2392.9477,1313.8599 C 2438.3308,1313.8595 2474.0371,1298.1755 2500.0667,1266.8076 C 2526.0948,1235.4392 2539.1093,1196.0621 2539.1101,1148.6763 C 2539.1093,1115.3058 2529.0982,1085.773 2509.0768,1060.0779 C 2489.0537,1034.3826 2456.3508,1021.535 2410.9677,1021.5351 C 2390.9448,1021.535 2366.9181,1022.2024 2338.8877,1023.5373 C 2255.4611,1028.2091 2199.7326,1030.545 2171.7019,1030.5451 C 2052.9029,1030.545 1958.131,995.83984 1887.386,926.42939 C 1816.6406,857.01907 1781.268,767.92016 1781.2681,659.13239 C 1781.268,488.27639 1875.3725,345.11747 2063.5818,229.6552 C 1995.5058,175.59595 1961.4681,113.86075 1961.4683,44.449412 C 1961.4681,-20.955576 1990.1666,-86.027813 2047.564,-150.76749 C 1952.1243,-174.79302 1904.4047,-223.51377 1904.4049,-296.9299 C 1904.4047,-379.01973 1961.4681,-421.06641 2075.5951,-423.07005 L 2075.5951,-423.07005 z "
     id="text2175" />
</svg>
