<?xml version="1.0" encoding="UTF-8" standalone="no"?>
<svg
   xmlns:dc="http://purl.org/dc/elements/1.1/"
   xmlns:cc="http://web.resource.org/cc/"
   xmlns:rdf="http://www.w3.org/1999/02/22-rdf-syntax-ns#"
   xmlns:svg="http://www.w3.org/2000/svg"
   xmlns="http://www.w3.org/2000/svg"
   xmlns:sodipodi="http://sodipodi.sourceforge.net/DTD/sodipodi-0.dtd"
   xmlns:inkscape="http://www.inkscape.org/namespaces/inkscape"
   width="3000"
   height="2000"
   viewBox="0 -410 3080 1900"
   id="svg2"
   sodipodi:version="0.32"
   inkscape:version="0.45.1"
   sodipodi:docname="Mu_uc_lc.svg"
   inkscape:output_extension="org.inkscape.output.svg.inkscape"
   sodipodi:docbase="C:\Documents and Settings\Flanker\Desktop"
   version="1.0">
  <metadata
     id="metadata15">
    <rdf:RDF>
      <cc:Work
         rdf:about="">
        <dc:format>image/svg+xml</dc:format>
        <dc:type
           rdf:resource="http://purl.org/dc/dcmitype/StillImage" />
      </cc:Work>
    </rdf:RDF>
  </metadata>
  <defs
     id="defs13" />
  <sodipodi:namedview
     inkscape:window-height="1005"
     inkscape:window-width="1280"
     inkscape:pageshadow="2"
     inkscape:pageopacity="0.0"
     guidetolerance="10.0"
     gridtolerance="10.0"
     objecttolerance="10.0"
     borderopacity="1.0"
     bordercolor="#666666"
     pagecolor="#ffffff"
     id="base"
     inkscape:zoom="0.19947368"
     inkscape:cx="1540"
     inkscape:cy="1351.0554"
     inkscape:window-x="-4"
     inkscape:window-y="-4"
     inkscape:current-layer="svg2"
     width="3000px"
     height="2000px"
     inkscape:showpageshadow="false" />
  <text
     xml:space="preserve"
     style="font-size:12px;font-style:normal;font-weight:normal;fill:#000000;fill-opacity:1;stroke:none;stroke-width:1px;stroke-linecap:butt;stroke-linejoin:miter;stroke-opacity:1;font-family:Lello"
     x="-471.24011"
     y="-946.41162"
     id="text2171"><tspan
       sodipodi:role="line"
       id="tspan2173"
       x="-471.24011"
       y="-946.41162"></tspan></text>
  <path
     style="font-size:2050.27807617px;font-style:normal;font-weight:normal;fill:#000000;fill-opacity:1;stroke:none;stroke-width:1px;stroke-linecap:butt;stroke-linejoin:miter;stroke-opacity:1;font-family:Times New Roman"
     d="M 1063.9711,-391.03446 C 1230.1548,-391.03307 1380.3215,-326.79509 1514.4717,-198.32033 C 1648.6194,-69.843179 1715.6938,100.1789 1715.6952,311.74641 C 1715.6938,521.98047 1649.6205,694.00477 1517.475,827.81982 C 1385.3271,961.63521 1228.82,1028.5428 1047.9533,1028.5428 C 847.0629,1028.5428 686.55138,958.13132 566.41827,817.30814 C 446.28466,676.48533 386.21798,508.63232 386.21805,313.74863 C 386.21798,102.84853 453.79299,-67.340401 588.9433,-196.81866 C 724.09305,-326.29453 882.4355,-391.03307 1063.9711,-391.03446 L 1063.9711,-391.03446 z M 1044.95,-317.95326 C 915.47217,-317.95194 811.52344,-264.39248 733.10348,-157.27472 C 654.68267,-50.154656 615.47247,105.51816 615.47278,309.74418 C 615.47247,500.62343 652.17989,656.29625 725.59514,776.76309 C 799.00955,897.23038 905.79476,957.46391 1045.9511,957.46387 C 1182.1015,957.46391 1289.5541,904.57186 1368.3093,798.78756 C 1447.0623,693.00366 1486.4393,539.33307 1486.4405,337.77533 C 1486.4393,133.54927 1449.5651,-26.795392 1375.8176,-143.25915 C 1302.068,-259.72063 1191.7789,-317.95194 1044.95,-317.95326 L 1044.95,-317.95326 z M 809.68857,76.485007 L 847.73084,76.485007 C 847.7303,133.88298 859.40994,174.92854 882.76977,199.62183 C 906.12847,224.3167 949.17625,236.66374 1011.9133,236.66298 L 1093.0034,236.66298 C 1152.4019,236.66374 1194.1148,224.48355 1218.1424,200.12238 C 1242.1682,175.7628 1254.1815,134.55039 1254.1825,76.485007 L 1292.2247,76.485007 L 1292.2247,560.02227 L 1254.1825,560.02227 C 1254.1815,503.29306 1242.5019,462.5812 1219.1435,437.88656 C 1195.7833,413.19304 1153.0693,400.846 1091.0011,400.84541 L 1007.9088,400.84541 C 948.50885,400.846 906.96273,413.19304 883.27033,437.88656 C 859.57679,462.5812 847.7303,503.29306 847.73084,560.02227 L 809.68857,560.02227 L 809.68857,76.485007 z M 2292.3359,-424.07116 C 2405.1273,-424.06974 2500.2329,-358.16325 2577.6529,-226.35148 C 2655.0714,-94.537259 2693.7811,77.153336 2693.782,288.72082 C 2693.7811,516.97492 2652.0681,696.84126 2568.6429,828.32038 C 2485.2162,959.79983 2388.7758,1025.5395 2279.3215,1025.5395 C 2171.8684,1025.5395 2077.2633,961.63521 1995.5061,833.82649 C 1913.7485,706.01811 1872.8698,532.659 1872.8699,313.74863 C 1872.8698,94.172229 1913.4148,-83.691886 1994.505,-219.84425 C 2075.5948,-355.99417 2174.8717,-424.06974 2292.3359,-424.07116 L 2292.3359,-424.07116 z M 2507.5751,266.69635 C 2507.5744,-155.1045 2433.4921,-366.00528 2285.3281,-366.00665 C 2133.1587,-366.00528 2057.0743,-155.1045 2057.0745,266.69635 L 2507.5751,266.69635 z M 2057.0745,328.76532 C 2057.0743,547.00826 2077.4302,708.02033 2118.1424,811.80202 C 2158.8539,915.58408 2213.5813,967.47502 2282.3248,967.47499 C 2431.1562,967.47502 2506.2395,754.57201 2507.5751,328.76532 L 2057.0745,328.76532 z "
     id="text2175" />
</svg>
