<?xml version="1.0" encoding="UTF-8" standalone="no"?>
<svg
   xmlns:dc="http://purl.org/dc/elements/1.1/"
   xmlns:cc="http://web.resource.org/cc/"
   xmlns:rdf="http://www.w3.org/1999/02/22-rdf-syntax-ns#"
   xmlns:svg="http://www.w3.org/2000/svg"
   xmlns="http://www.w3.org/2000/svg"
   xmlns:sodipodi="http://sodipodi.sourceforge.net/DTD/sodipodi-0.dtd"
   xmlns:inkscape="http://www.inkscape.org/namespaces/inkscape"
   width="3000"
   height="2000"
   viewBox="0 -410 3080 1900"
   id="svg2"
   sodipodi:version="0.32"
   inkscape:version="0.45.1"
   sodipodi:docname="Mu_uc_lc.svg"
   inkscape:output_extension="org.inkscape.output.svg.inkscape"
   sodipodi:docbase="C:\Documents and Settings\Flanker\Desktop"
   version="1.0">
  <metadata
     id="metadata15">
    <rdf:RDF>
      <cc:Work
         rdf:about="">
        <dc:format>image/svg+xml</dc:format>
        <dc:type
           rdf:resource="http://purl.org/dc/dcmitype/StillImage" />
      </cc:Work>
    </rdf:RDF>
  </metadata>
  <defs
     id="defs13" />
  <sodipodi:namedview
     inkscape:window-height="1005"
     inkscape:window-width="1280"
     inkscape:pageshadow="2"
     inkscape:pageopacity="0.0"
     guidetolerance="10.0"
     gridtolerance="10.0"
     objecttolerance="10.0"
     borderopacity="1.0"
     bordercolor="#666666"
     pagecolor="#ffffff"
     id="base"
     inkscape:zoom="0.19947368"
     inkscape:cx="1540"
     inkscape:cy="1351.0554"
     inkscape:window-x="-4"
     inkscape:window-y="-4"
     inkscape:current-layer="svg2"
     width="3000px"
     height="2000px"
     inkscape:showpageshadow="false" />
  <text
     xml:space="preserve"
     style="font-size:12px;font-style:normal;font-weight:normal;fill:#000000;fill-opacity:1;stroke:none;stroke-width:1px;stroke-linecap:butt;stroke-linejoin:miter;stroke-opacity:1;font-family:Lello"
     x="-471.24011"
     y="-946.41162"
     id="text2171"><tspan
       sodipodi:role="line"
       id="tspan2173"
       x="-471.24011"
       y="-946.41162"></tspan></text>
  <path
     style="font-size:2050.27807617px;font-style:normal;font-weight:normal;fill:#000000;fill-opacity:1;stroke:none;stroke-width:1px;stroke-linecap:butt;stroke-linejoin:miter;stroke-opacity:1;font-family:Times New Roman"
     d="M 1268.198,960.46721 L 1268.198,997.50836 L 686.55172,997.50836 L 686.55172,960.46721 L 734.60512,960.46721 C 790.66725,960.46724 831.37911,944.11576 856.74082,911.4127 C 872.75838,890.05574 880.76727,838.66536 880.76752,757.2414 L 880.76752,-119.73301 C 880.76727,-188.47487 876.42912,-233.85859 867.75306,-255.88429 C 861.07875,-272.56823 847.3969,-286.91749 826.70745,-298.93212 C 797.34133,-314.94861 766.64058,-322.9575 734.60512,-322.95882 L 686.55172,-322.95882 L 686.55172,-359.99997 L 1268.198,-359.99997 L 1268.198,-322.95882 L 1219.1435,-322.95882 C 1163.7481,-322.9575 1123.3699,-306.60601 1098.0089,-273.90431 C 1081.3232,-252.546 1072.9807,-201.15562 1072.9811,-119.73301 L 1072.9811,757.2414 C 1072.9807,825.98462 1077.3188,871.36833 1085.9955,893.39268 C 1092.6692,910.07797 1106.6847,924.42723 1128.0423,936.44051 C 1156.7403,952.45835 1187.1073,960.46724 1219.1435,960.46721 L 1268.198,960.46721 z M 2357.4082,798.28701 L 2393.4482,798.28701 C 2380.7669,949.78872 2316.6958,1025.5395 2201.2347,1025.5395 C 2160.5224,1025.5395 2125.6504,1014.3604 2096.6184,992.00224 C 2067.5859,969.6441 2048.2311,944.28261 2038.5539,915.91771 C 2028.8763,887.55297 2024.0376,838.33166 2024.0378,768.25364 L 2024.0378,436.88545 C 2024.0376,330.1008 2020.0331,261.69153 2012.0244,231.65742 C 2004.0154,201.62485 1983.9931,186.60818 1951.9577,186.60736 C 1933.2702,186.60818 1910.5783,191.61373 1883.882,201.62405 L 1869.8665,165.58401 L 2146.1735,53.459423 L 2190.2224,53.459423 L 2190.2224,776.26253 C 2190.2221,835.66203 2195.895,876.37389 2207.2413,898.39824 C 2218.5869,920.42279 2239.2765,931.43501 2269.3103,931.43495 C 2314.6936,931.43501 2344.0595,887.05241 2357.4082,798.28701 L 2357.4082,798.28701 z "
     id="text2175" />
</svg>
