<?xml version="1.0" encoding="UTF-8" standalone="no"?>
<svg
   xmlns:dc="http://purl.org/dc/elements/1.1/"
   xmlns:cc="http://web.resource.org/cc/"
   xmlns:rdf="http://www.w3.org/1999/02/22-rdf-syntax-ns#"
   xmlns:svg="http://www.w3.org/2000/svg"
   xmlns="http://www.w3.org/2000/svg"
   xmlns:sodipodi="http://sodipodi.sourceforge.net/DTD/sodipodi-0.dtd"
   xmlns:inkscape="http://www.inkscape.org/namespaces/inkscape"
   width="3000"
   height="2000"
   viewBox="0 -410 3080 1900"
   id="svg2"
   sodipodi:version="0.32"
   inkscape:version="0.45.1"
   sodipodi:docname="Mu_uc_lc.svg"
   inkscape:output_extension="org.inkscape.output.svg.inkscape"
   sodipodi:docbase="C:\Documents and Settings\Flanker\Desktop"
   version="1.0">
  <metadata
     id="metadata15">
    <rdf:RDF>
      <cc:Work
         rdf:about="">
        <dc:format>image/svg+xml</dc:format>
        <dc:type
           rdf:resource="http://purl.org/dc/dcmitype/StillImage" />
      </cc:Work>
    </rdf:RDF>
  </metadata>
  <defs
     id="defs13" />
  <sodipodi:namedview
     inkscape:window-height="1005"
     inkscape:window-width="1280"
     inkscape:pageshadow="2"
     inkscape:pageopacity="0.0"
     guidetolerance="10.0"
     gridtolerance="10.0"
     objecttolerance="10.0"
     borderopacity="1.0"
     bordercolor="#666666"
     pagecolor="#ffffff"
     id="base"
     inkscape:zoom="0.19947368"
     inkscape:cx="1540"
     inkscape:cy="1351.0554"
     inkscape:window-x="-4"
     inkscape:window-y="-4"
     inkscape:current-layer="svg2"
     width="3000px"
     height="2000px"
     inkscape:showpageshadow="false" />
  <text
     xml:space="preserve"
     style="font-size:12px;font-style:normal;font-weight:normal;fill:#000000;fill-opacity:1;stroke:none;stroke-width:1px;stroke-linecap:butt;stroke-linejoin:miter;stroke-opacity:1;font-family:Lello"
     x="-471.24011"
     y="-946.41162"
     id="text2171"><tspan
       sodipodi:role="line"
       id="tspan2173"
       x="-471.24011"
       y="-946.41162"></tspan></text>
  <path
     style="font-size:2050.27807617px;font-style:normal;font-weight:normal;fill:#000000;fill-opacity:1;stroke:none;stroke-width:1px;stroke-linecap:butt;stroke-linejoin:miter;stroke-opacity:1;font-family:Times New Roman"
     d="M 896.28478,361.80202 L 896.28478,757.2414 C 896.28436,842.66981 905.62807,895.72871 924.31593,916.41826 C 949.67696,945.78428 988.0529,960.46724 1039.4438,960.46721 L 1091.5017,960.46721 L 1091.5017,997.50836 L 509.85542,997.50836 L 509.85542,960.46721 L 560.91215,960.46721 C 618.30911,960.46724 659.35468,941.77983 684.04896,904.40491 C 697.39691,883.71537 704.07098,834.66092 704.07121,757.2414 L 704.07121,-119.73301 C 704.07098,-205.16006 695.06098,-258.21896 677.04118,-278.90987 C 651.01208,-308.27453 612.30244,-322.9575 560.91215,-322.95882 L 509.85542,-322.95882 L 509.85542,-359.99997 L 1007.4082,-359.99997 C 1128.8759,-359.99862 1224.6489,-347.48472 1294.7275,-322.45826 C 1364.8045,-297.42916 1423.87,-255.21563 1471.9244,-195.81755 C 1519.9767,-136.41708 1544.0034,-66.005586 1544.0045,15.417154 C 1544.0034,126.20779 1507.4628,216.30781 1434.3827,285.71749 C 1361.3006,355.12858 1258.0193,389.83378 1124.5384,389.83317 C 1091.8348,389.83378 1056.4622,387.49785 1018.4205,382.82538 C 980.37771,378.15415 939.66585,371.14637 896.28478,361.80202 L 896.28478,361.80202 z M 896.28478,304.73862 C 931.65696,311.41339 963.02512,316.41895 990.38934,319.75531 C 1017.7525,323.09302 1041.1118,324.76154 1060.4672,324.76087 C 1129.877,324.76154 1189.7768,297.89839 1240.1669,244.17132 C 1290.5554,190.44577 1315.75,120.86853 1315.7509,35.439401 C 1315.75,-23.291502 1303.7367,-77.85207 1279.7108,-128.24247 C 1255.6833,-178.63061 1221.6455,-216.33914 1177.5973,-241.36816 C 1133.5477,-266.39471 1083.4922,-278.9086 1027.4305,-278.90987 C 993.39216,-278.9086 949.67696,-272.56823 896.28478,-259.88874 L 896.28478,304.73862 z M 1877.3749,1435.9956 L 1706.1847,1435.9956 C 1730.8787,1359.2433 1743.2257,1243.1143 1743.2258,1087.6085 L 1743.2258,522.98111 C 1743.2257,363.47118 1788.2757,245.34004 1878.376,168.58734 C 1968.4757,91.836302 2067.9195,53.460367 2176.7075,53.459423 C 2294.838,53.460367 2389.9436,94.005377 2462.0245,175.09457 C 2534.1037,256.18541 2570.1437,362.47007 2570.1446,493.94885 C 2570.1437,637.44198 2525.4274,761.91349 2435.9956,867.36376 C 2346.5621,972.81428 2244.4488,1025.5395 2129.6552,1025.5395 C 2052.2354,1025.5395 1978.4869,1000.8454 1908.4094,951.45719 L 1908.4094,1082.6029 C 1908.4091,1222.091 1898.0642,1339.8884 1877.3749,1435.9956 L 1877.3749,1435.9956 z M 1908.4094,719.19913 C 1908.4091,799.95572 1929.7661,861.52407 1972.4805,903.90436 C 2015.1943,946.28483 2069.588,967.47502 2135.6619,967.47499 C 2213.748,967.47502 2278.9871,933.93779 2331.3793,866.8632 C 2383.7701,799.78887 2409.9658,711.19052 2409.9666,601.06787 C 2409.9658,461.58009 2374.2595,351.12414 2302.8476,269.69969 C 2231.4343,188.27669 2152.0128,147.56483 2064.5829,147.56398 C 2005.1832,147.56483 1964.3044,166.08539 1941.9466,203.12572 C 1919.5881,240.16763 1908.4091,300.40116 1908.4094,383.8265 L 1908.4094,719.19913 z "
     id="text2175" />
</svg>
