<?xml version="1.0" encoding="UTF-8" standalone="no"?>
<svg
   xmlns:dc="http://purl.org/dc/elements/1.1/"
   xmlns:cc="http://web.resource.org/cc/"
   xmlns:rdf="http://www.w3.org/1999/02/22-rdf-syntax-ns#"
   xmlns:svg="http://www.w3.org/2000/svg"
   xmlns="http://www.w3.org/2000/svg"
   xmlns:sodipodi="http://sodipodi.sourceforge.net/DTD/sodipodi-0.dtd"
   xmlns:inkscape="http://www.inkscape.org/namespaces/inkscape"
   width="3000"
   height="2000"
   viewBox="0 -410 3080 1900"
   id="svg2"
   sodipodi:version="0.32"
   inkscape:version="0.45.1"
   sodipodi:docname="Mu_uc_lc.svg"
   inkscape:output_extension="org.inkscape.output.svg.inkscape"
   sodipodi:docbase="C:\Documents and Settings\Flanker\Desktop"
   version="1.0">
  <metadata
     id="metadata15">
    <rdf:RDF>
      <cc:Work
         rdf:about="">
        <dc:format>image/svg+xml</dc:format>
        <dc:type
           rdf:resource="http://purl.org/dc/dcmitype/StillImage" />
      </cc:Work>
    </rdf:RDF>
  </metadata>
  <defs
     id="defs13" />
  <sodipodi:namedview
     inkscape:window-height="1005"
     inkscape:window-width="1280"
     inkscape:pageshadow="2"
     inkscape:pageopacity="0.0"
     guidetolerance="10.0"
     gridtolerance="10.0"
     objecttolerance="10.0"
     borderopacity="1.0"
     bordercolor="#666666"
     pagecolor="#ffffff"
     id="base"
     inkscape:zoom="0.19947368"
     inkscape:cx="1540"
     inkscape:cy="1351.0554"
     inkscape:window-x="-4"
     inkscape:window-y="-4"
     inkscape:current-layer="svg2"
     width="3000px"
     height="2000px"
     inkscape:showpageshadow="false" />
  <text
     xml:space="preserve"
     style="font-size:12px;font-style:normal;font-weight:normal;fill:#000000;fill-opacity:1;stroke:none;stroke-width:1px;stroke-linecap:butt;stroke-linejoin:miter;stroke-opacity:1;font-family:Lello"
     x="-471.24011"
     y="-946.41162"
     id="text2171"><tspan
       sodipodi:role="line"
       id="tspan2173"
       x="-471.24011"
       y="-946.41162"></tspan></text>
  <path
     style="font-size:2050.27807617px;font-style:normal;font-weight:normal;fill:#000000;fill-opacity:1;stroke:none;stroke-width:1px;stroke-linecap:butt;stroke-linejoin:miter;stroke-opacity:1;font-family:Times New Roman"
     d="M 1337.2748,-285.91766 L 707.5751,-285.91766 L 707.5751,750.23361 C 707.57468,839.66647 719.08746,896.39612 742.11348,920.42271 C 765.13858,944.44946 819.03174,957.79761 903.79312,960.46721 L 903.79312,997.50836 L 319.14351,997.50836 L 319.14351,960.46721 C 403.23683,957.79761 456.96314,944.44946 480.3226,920.42271 C 503.68167,896.39612 515.3613,839.66647 515.36153,750.23361 L 515.36153,-112.72523 C 515.3613,-202.15673 503.68167,-258.88637 480.3226,-282.91432 C 456.96314,-306.93972 403.23683,-320.28787 319.14351,-322.95882 L 319.14351,-359.99997 L 1725.7064,-359.99997 L 1725.7064,-322.95882 C 1641.6116,-320.28787 1587.8852,-306.93972 1564.5273,-282.91432 C 1541.1667,-258.88637 1529.4871,-202.15673 1529.4883,-112.72523 L 1529.4883,750.23361 C 1529.4871,839.66647 1541.1667,896.39612 1564.5273,920.42271 C 1587.8852,944.44946 1641.6116,957.79761 1725.7064,960.46721 L 1725.7064,997.50836 L 1142.0579,997.50836 L 1142.0579,960.46721 C 1225.4829,957.79761 1278.8755,944.61631 1302.2358,920.92327 C 1325.5941,897.23038 1337.2737,840.33388 1337.2748,750.23361 L 1337.2748,-285.91766 z M 2757.8532,80.489457 L 2757.8532,226.65186 L 2525.5951,226.65186 L 2505.5728,530.99001 C 2501.5677,583.71567 2499.5654,629.43309 2499.5662,668.1424 C 2499.5654,760.91238 2510.4108,817.47517 2532.1023,837.83094 C 2553.7923,858.18703 2579.988,868.365 2610.6896,868.36487 C 2674.7599,868.365 2712.8021,827.98684 2724.8164,747.23028 L 2760.8565,747.23028 C 2738.831,932.76983 2664.7488,1025.5395 2538.6095,1025.5395 C 2479.8769,1025.5395 2432.6578,1007.5195 2396.9522,971.47944 C 2361.2452,935.43946 2343.3921,882.04685 2343.3926,811.30147 C 2343.3921,764.58312 2350.3998,665.8068 2364.416,514.97221 L 2391.446,226.65186 L 2179.2102,226.65186 C 2165.1942,469.58898 2148.3422,647.11939 2128.654,759.24362 C 2108.9652,871.36833 2087.2744,943.78205 2063.5817,976.485 C 2039.8885,1009.188 2007.6861,1025.5395 1966.9744,1025.5395 C 1936.2735,1025.5395 1910.4114,1016.5295 1889.3882,998.50947 C 1868.3647,980.48947 1857.8531,956.7965 1857.8532,927.4305 C 1857.8531,899.39945 1875.8731,861.02352 1911.9132,812.30258 C 1964.6383,741.55756 2004.0153,667.97588 2030.0445,591.55731 C 2056.0731,515.13955 2075.7616,393.50452 2089.1101,226.65186 L 2021.0345,226.65186 C 1966.3068,226.65263 1924.427,238.83282 1895.3949,263.19246 C 1866.3625,287.55357 1838.8319,322.42561 1812.8031,367.8087 L 1776.7631,367.8087 C 1796.1179,296.39672 1821.1456,237.66485 1851.8465,191.61293 C 1882.5471,145.56261 1914.0821,115.52927 1946.4516,101.51282 C 1978.8207,87.498153 2036.3846,80.490374 2119.1435,80.489457 L 2757.8532,80.489457 z "
     id="text2175" />
</svg>
