<?xml version="1.0" encoding="UTF-8" standalone="no"?>
<svg
   xmlns:dc="http://purl.org/dc/elements/1.1/"
   xmlns:cc="http://web.resource.org/cc/"
   xmlns:rdf="http://www.w3.org/1999/02/22-rdf-syntax-ns#"
   xmlns:svg="http://www.w3.org/2000/svg"
   xmlns="http://www.w3.org/2000/svg"
   xmlns:sodipodi="http://sodipodi.sourceforge.net/DTD/sodipodi-0.dtd"
   xmlns:inkscape="http://www.inkscape.org/namespaces/inkscape"
   width="3000"
   height="2000"
   viewBox="0 -410 3080 1900"
   id="svg2"
   sodipodi:version="0.32"
   inkscape:version="0.45.1"
   sodipodi:docname="Mu_uc_lc.svg"
   inkscape:output_extension="org.inkscape.output.svg.inkscape"
   sodipodi:docbase="C:\Documents and Settings\Flanker\Desktop"
   version="1.0">
  <metadata
     id="metadata15">
    <rdf:RDF>
      <cc:Work
         rdf:about="">
        <dc:format>image/svg+xml</dc:format>
        <dc:type
           rdf:resource="http://purl.org/dc/dcmitype/StillImage" />
      </cc:Work>
    </rdf:RDF>
  </metadata>
  <defs
     id="defs13" />
  <sodipodi:namedview
     inkscape:window-height="1005"
     inkscape:window-width="1280"
     inkscape:pageshadow="2"
     inkscape:pageopacity="0.0"
     guidetolerance="10.0"
     gridtolerance="10.0"
     objecttolerance="10.0"
     borderopacity="1.0"
     bordercolor="#666666"
     pagecolor="#ffffff"
     id="base"
     inkscape:zoom="0.19947368"
     inkscape:cx="1540"
     inkscape:cy="1351.0554"
     inkscape:window-x="-4"
     inkscape:window-y="-4"
     inkscape:current-layer="svg2"
     width="3000px"
     height="2000px"
     inkscape:showpageshadow="false" />
  <text
     xml:space="preserve"
     style="font-size:12px;font-style:normal;font-weight:normal;fill:#000000;fill-opacity:1;stroke:none;stroke-width:1px;stroke-linecap:butt;stroke-linejoin:miter;stroke-opacity:1;font-family:Lello"
     x="-471.24011"
     y="-946.41162"
     id="text2171"><tspan
       sodipodi:role="line"
       id="tspan2173"
       x="-471.24011"
       y="-946.41162"></tspan></text>
  <path
     style="font-size:2050.27807617px;font-style:normal;font-weight:normal;fill:#000000;fill-opacity:1;stroke:none;stroke-width:1px;stroke-linecap:butt;stroke-linejoin:miter;stroke-opacity:1;font-family:Times New Roman"
     d="M 721.59067,269.69969 L 1352.2914,269.69969 L 1352.2914,-118.7319 C 1352.2904,-188.14117 1347.9522,-233.85859 1339.277,-255.88429 C 1332.6019,-272.56823 1318.5863,-286.91749 1297.2303,-298.93212 C 1268.5307,-314.94861 1238.1637,-322.9575 1206.129,-322.95882 L 1158.0757,-322.95882 L 1158.0757,-359.99997 L 1738.7208,-359.99997 L 1738.7208,-322.95882 L 1690.6674,-322.95882 C 1658.6305,-322.9575 1628.2634,-315.28231 1599.5662,-299.93323 C 1578.2079,-289.25341 1563.6917,-273.06878 1556.0178,-251.37928 C 1548.3414,-229.68729 1544.5038,-185.47154 1544.505,-118.7319 L 1544.505,757.2414 C 1544.5038,825.98462 1548.8419,871.36833 1557.5195,893.39268 C 1564.1923,910.07797 1577.8742,924.42723 1598.5651,936.44051 C 1627.9297,952.45835 1658.6305,960.46724 1690.6674,960.46721 L 1738.7208,960.46721 L 1738.7208,997.50836 L 1158.0757,997.50836 L 1158.0757,960.46721 L 1206.129,960.46721 C 1261.523,960.46724 1301.9011,944.11576 1327.2636,911.4127 C 1343.9478,890.05574 1352.2904,838.66536 1352.2914,757.2414 L 1352.2914,343.782 L 721.59067,343.782 L 721.59067,757.2414 C 721.59025,825.98462 725.9284,871.36833 734.60513,893.39268 C 741.27877,910.07797 755.29433,924.42723 776.65185,936.44051 C 805.3499,952.45835 835.71694,960.46724 867.75307,960.46721 L 916.80758,960.46721 L 916.80758,997.50836 L 335.16131,997.50836 L 335.16131,960.46721 L 383.2147,960.46721 C 439.27685,960.46724 479.98871,944.11576 505.35041,911.4127 C 521.36798,890.05574 529.37687,838.66536 529.3771,757.2414 L 529.3771,-118.7319 C 529.37687,-188.14117 525.03872,-233.85859 516.36264,-255.88429 C 509.68835,-272.56823 496.00649,-286.91749 475.31704,-298.93212 C 445.95093,-314.94861 415.25018,-322.9575 383.2147,-322.95882 L 335.16131,-322.95882 L 335.16131,-359.99997 L 916.80758,-359.99997 L 916.80758,-322.95882 L 867.75307,-322.95882 C 835.71694,-322.9575 805.3499,-315.28231 776.65185,-299.93323 C 755.96174,-289.25341 741.61248,-273.06878 733.60402,-251.37928 C 725.5947,-229.68729 721.59025,-185.47154 721.59067,-118.7319 L 721.59067,269.69969 z M 2162.1913,250.67855 C 2266.9739,119.20001 2369.7547,53.460367 2470.5339,53.459423 C 2628.0414,53.460367 2706.7955,169.25558 2706.7964,400.84541 L 2706.7964,1143.6708 C 2706.7955,1270.4781 2719.4762,1367.9196 2744.8387,1435.9956 L 2575.6507,1435.9956 C 2552.9581,1373.2588 2541.6121,1258.4647 2541.6129,1091.6129 L 2541.6129,378.82093 C 2541.6121,310.07857 2530.9336,259.18875 2509.5773,226.1513 C 2488.2195,193.1154 2450.8447,176.59706 2397.4527,176.59624 C 2317.3632,176.59706 2238.9428,220.97967 2162.1913,309.74418 L 2162.1913,997.50836 L 1997.0078,997.50836 L 1997.0078,309.74418 C 1997.0076,247.67597 1990.834,204.96188 1978.4872,181.6018 C 1966.14,158.24335 1945.2835,146.56372 1915.9177,146.56287 C 1868.5316,146.56372 1839.4994,193.28225 1828.8209,286.7186 L 1792.7809,286.7186 C 1805.4616,131.21335 1869.5327,53.460367 1984.9944,53.459423 C 2036.3846,53.460367 2078.4313,71.31352 2111.1346,107.01893 C 2143.8372,142.72613 2160.8561,190.61262 2162.1913,250.67855 L 2162.1913,250.67855 z "
     id="text2175" />
</svg>
