<?xml version="1.0" encoding="UTF-8" standalone="no"?>
<svg
   xmlns:dc="http://purl.org/dc/elements/1.1/"
   xmlns:cc="http://web.resource.org/cc/"
   xmlns:rdf="http://www.w3.org/1999/02/22-rdf-syntax-ns#"
   xmlns:svg="http://www.w3.org/2000/svg"
   xmlns="http://www.w3.org/2000/svg"
   xmlns:sodipodi="http://sodipodi.sourceforge.net/DTD/sodipodi-0.dtd"
   xmlns:inkscape="http://www.inkscape.org/namespaces/inkscape"
   width="3000"
   height="2000"
   viewBox="0 -410 3080 1900"
   id="svg2"
   sodipodi:version="0.32"
   inkscape:version="0.45.1"
   sodipodi:docname="Mu_uc_lc.svg"
   inkscape:output_extension="org.inkscape.output.svg.inkscape"
   sodipodi:docbase="C:\Documents and Settings\Flanker\Desktop"
   version="1.0">
  <metadata
     id="metadata15">
    <rdf:RDF>
      <cc:Work
         rdf:about="">
        <dc:format>image/svg+xml</dc:format>
        <dc:type
           rdf:resource="http://purl.org/dc/dcmitype/StillImage" />
      </cc:Work>
    </rdf:RDF>
  </metadata>
  <defs
     id="defs13" />
  <sodipodi:namedview
     inkscape:window-height="1005"
     inkscape:window-width="1280"
     inkscape:pageshadow="2"
     inkscape:pageopacity="0.0"
     guidetolerance="10.0"
     gridtolerance="10.0"
     objecttolerance="10.0"
     borderopacity="1.0"
     bordercolor="#666666"
     pagecolor="#ffffff"
     id="base"
     inkscape:zoom="0.19947368"
     inkscape:cx="1605.3276"
     inkscape:cy="1351.0554"
     inkscape:window-x="-4"
     inkscape:window-y="-4"
     inkscape:current-layer="svg2"
     width="3000px"
     height="2000px"
     inkscape:showpageshadow="false" />
  <text
     xml:space="preserve"
     style="font-size:12px;font-style:normal;font-weight:normal;fill:#000000;fill-opacity:1;stroke:none;stroke-width:1px;stroke-linecap:butt;stroke-linejoin:miter;stroke-opacity:1;font-family:Lello"
     x="-471.24011"
     y="-946.41162"
     id="text2171"><tspan
       sodipodi:role="line"
       id="tspan2173"
       x="-471.24011"
       y="-946.41162"></tspan></text>
  <path
     style="font-size:2050.27807617px;font-style:normal;font-weight:normal;fill:#000000;fill-opacity:1;stroke:none;stroke-width:1px;stroke-linecap:butt;stroke-linejoin:miter;stroke-opacity:1;font-family:Times New Roman"
     d="M 1143.059,245.67299 L 1434.3827,680.15575 C 1515.1379,800.28943 1575.0377,876.20704 1614.0823,907.90881 C 1653.1244,939.61076 1702.6794,957.1302 1762.7475,960.46721 L 1762.7475,997.50836 L 1180.1001,997.50836 L 1180.1001,960.46721 C 1218.8089,959.79983 1247.5074,955.79539 1266.1958,948.45386 C 1280.2104,942.44724 1291.7232,933.27038 1300.7342,920.92327 C 1309.7432,908.5763 1314.2482,896.06241 1314.2492,883.38155 C 1314.2482,868.0313 1311.2448,852.68092 1305.2392,837.33039 C 1300.5663,825.98462 1282.2126,796.61869 1250.178,749.2325 L 1019.9222,400.84541 L 735.60625,765.2503 C 705.57248,803.96017 687.55248,829.82221 681.54619,842.8365 C 675.53914,855.85111 672.53581,869.36611 672.53618,883.38155 C 672.53581,904.73871 681.54581,922.42501 699.56621,936.44051 C 717.58582,950.45613 751.95731,958.46502 802.68078,960.46721 L 802.68078,997.50836 L 321.14574,997.50836 L 321.14574,960.46721 C 355.18351,957.1302 384.54945,950.12243 409.24363,939.44385 C 450.6228,922.09131 489.99984,898.73204 527.37489,869.36598 C 564.74949,840.00018 607.46357,794.95017 655.51727,734.21582 L 975.87322,329.76643 L 708.57622,-61.668496 C 635.82839,-167.78524 574.09319,-237.36248 523.37044,-270.40042 C 472.64725,-303.43583 414.24908,-320.95527 348.17578,-322.95882 L 348.17578,-359.99997 L 975.87322,-359.99997 L 975.87322,-322.95882 C 922.47994,-320.95527 885.93938,-312.27898 866.25141,-296.9299 C 846.56233,-281.57823 836.71807,-264.55934 836.7186,-245.87317 C 836.71807,-221.17784 852.73585,-185.13784 884.77199,-137.75303 L 1093.0034,173.5929 L 1334.2714,-131.74636 C 1362.3015,-167.78524 1379.4873,-192.47932 1385.8287,-205.82867 C 1392.168,-219.17562 1395.3382,-232.85748 1395.3393,-246.87428 C 1395.3382,-260.88859 1391.3338,-273.23563 1383.3259,-283.91544 C 1373.3137,-297.92971 1360.633,-307.77397 1345.2837,-313.44825 C 1329.9323,-319.1199 1298.2304,-322.29009 1250.178,-322.95882 L 1250.178,-359.99997 L 1731.713,-359.99997 L 1731.713,-322.95882 C 1693.6694,-320.95527 1662.6349,-314.94861 1638.6096,-304.93879 C 1602.5682,-289.58712 1569.5316,-268.89748 1539.4995,-242.86983 C 1509.4649,-216.83969 1467.0845,-168.78635 1412.3582,-98.709653 L 1143.059,245.67299 z M 2506.574,80.489457 L 2681.7686,80.489457 L 2317.3637,797.28589 L 2383.4371,1076.5962 C 2405.461,1169.3658 2430.9893,1228.0977 2460.0222,1252.792 C 2489.0538,1277.4858 2524.2595,1289.8329 2565.6396,1289.8332 C 2663.0803,1289.8329 2715.1381,1233.1032 2721.8131,1119.6441 L 2758.8543,1119.6441 C 2757.5185,1219.0877 2738.1637,1297.3412 2700.7898,1354.4049 C 2663.414,1411.4679 2613.0247,1439.9996 2549.6218,1440 C 2494.2262,1439.9996 2450.1773,1422.3133 2417.475,1386.9411 C 2384.7714,1351.5681 2355.7391,1281.4903 2330.3782,1176.7075 L 2264.3048,898.39824 L 1997.0078,1435.9956 L 1821.8131,1435.9956 L 2209.2436,666.14018 L 2153.1813,429.87766 C 2132.4913,343.78266 2111.8017,285.55135 2091.1123,255.18356 C 2070.4224,224.81726 2038.0531,209.63374 1994.0044,209.63295 C 1915.9176,209.63374 1867.5305,269.03301 1848.8432,387.83095 L 1811.802,387.83095 C 1811.802,294.3945 1827.9866,217.47578 1860.3559,157.07455 C 1892.7251,96.675007 1940.9453,66.474815 2005.0167,66.473884 C 2060.4113,66.474815 2101.9574,86.830745 2129.6552,127.54174 C 2157.3522,168.25447 2183.8817,242.003 2209.2436,348.78756 L 2261.3014,565.02783 L 2506.574,80.489457 z "
     id="text2175" />
</svg>
