<?xml version="1.0" encoding="UTF-8" standalone="no"?>
<svg
   xmlns:dc="http://purl.org/dc/elements/1.1/"
   xmlns:cc="http://web.resource.org/cc/"
   xmlns:rdf="http://www.w3.org/1999/02/22-rdf-syntax-ns#"
   xmlns:svg="http://www.w3.org/2000/svg"
   xmlns="http://www.w3.org/2000/svg"
   xmlns:sodipodi="http://sodipodi.sourceforge.net/DTD/sodipodi-0.dtd"
   xmlns:inkscape="http://www.inkscape.org/namespaces/inkscape"
   width="3000"
   height="2000"
   viewBox="0 -410 3080 1900"
   id="svg2"
   sodipodi:version="0.32"
   inkscape:version="0.45.1"
   sodipodi:docname="Mu_uc_lc.svg"
   inkscape:output_extension="org.inkscape.output.svg.inkscape"
   sodipodi:docbase="C:\Documents and Settings\Flanker\Desktop"
   version="1.0">
  <metadata
     id="metadata15">
    <rdf:RDF>
      <cc:Work
         rdf:about="">
        <dc:format>image/svg+xml</dc:format>
        <dc:type
           rdf:resource="http://purl.org/dc/dcmitype/StillImage" />
      </cc:Work>
    </rdf:RDF>
  </metadata>
  <defs
     id="defs13" />
  <sodipodi:namedview
     inkscape:window-height="1005"
     inkscape:window-width="1280"
     inkscape:pageshadow="2"
     inkscape:pageopacity="0.0"
     guidetolerance="10.0"
     gridtolerance="10.0"
     objecttolerance="10.0"
     borderopacity="1.0"
     bordercolor="#666666"
     pagecolor="#ffffff"
     id="base"
     inkscape:zoom="0.19947368"
     inkscape:cx="1605.3276"
     inkscape:cy="1351.0554"
     inkscape:window-x="-4"
     inkscape:window-y="-4"
     inkscape:current-layer="svg2"
     width="3000px"
     height="2000px"
     inkscape:showpageshadow="false" />
  <text
     xml:space="preserve"
     style="font-size:12px;font-style:normal;font-weight:normal;fill:#000000;fill-opacity:1;stroke:none;stroke-width:1px;stroke-linecap:butt;stroke-linejoin:miter;stroke-opacity:1;font-family:Lello"
     x="-471.24011"
     y="-946.41162"
     id="text2171"><tspan
       sodipodi:role="line"
       id="tspan2173"
       x="-471.24011"
       y="-946.41162"></tspan></text>
  <path
     style="font-size:2050.27807617px;font-style:normal;font-weight:normal;fill:#000000;fill-opacity:1;stroke:none;stroke-width:1px;stroke-linecap:butt;stroke-linejoin:miter;stroke-opacity:1;font-family:Times New Roman"
     d="M 1676.6518,-359.99997 L 1691.6685,-41.646249 L 1653.6262,-41.646249 C 1646.2836,-97.707445 1636.2725,-137.7519 1623.5929,-161.77973 C 1602.9021,-200.48821 1575.3715,-229.01988 1541.0011,-247.37484 C 1506.6285,-265.7273 1461.4117,-274.90415 1405.3504,-274.90542 L 1214.1379,-274.90542 L 1214.1379,762.24696 C 1214.1372,845.67314 1223.1472,897.73093 1241.1679,918.42049 C 1266.5287,946.45168 1305.572,960.46724 1358.2981,960.46721 L 1405.3504,960.46721 L 1405.3504,997.50836 L 829.71076,997.50836 L 829.71076,960.46721 L 877.76416,960.46721 C 935.16082,960.46724 975.87268,943.11465 999.89986,908.40936 C 1014.5823,887.05241 1021.9238,838.33166 1021.9243,762.24696 L 1021.9243,-274.90542 L 858.74302,-274.90542 C 795.33893,-274.90415 750.28892,-270.2323 723.59285,-260.88985 C 688.88743,-248.20785 659.18779,-223.84747 634.49386,-187.80865 C 609.79963,-151.76746 595.11667,-103.04671 590.44491,-41.646249 L 552.40264,-41.646249 L 568.42044,-359.99997 L 1676.6518,-359.99997 z M 2237.2748,226.65186 L 2208.2425,513.9711 C 2203.5702,564.02715 2201.2343,614.08272 2201.2347,664.13795 C 2201.2343,759.57757 2212.4133,817.47517 2234.772,837.83094 C 2257.1296,858.18703 2282.658,868.365 2311.3571,868.36487 C 2375.4276,868.365 2413.4699,827.98684 2425.4839,747.23028 L 2462.525,747.23028 C 2440.4999,932.76983 2366.7513,1025.5395 2241.2792,1025.5395 C 2109.7994,1025.5395 2044.0598,950.12243 2044.0601,799.28812 C 2044.0598,723.20385 2051.4013,628.43198 2066.0846,514.97221 L 2103.1257,226.65186 L 2004.0156,226.65186 C 1949.2879,226.65263 1906.7407,235.82948 1876.3738,254.18245 C 1846.0066,272.5369 1817.8086,309.41117 1791.7798,364.80536 L 1755.7397,364.80536 C 1777.0968,291.39116 1802.4582,233.15985 1831.8243,190.11126 C 1861.1901,147.06428 1889.2212,118.03205 1915.9177,103.01448 C 1942.6138,87.998709 1982.3246,80.490374 2035.0501,80.489457 L 2527.5973,80.489457 L 2527.5973,226.65186 L 2237.2748,226.65186 z "
     id="text2175" />
</svg>
