<?xml version="1.0" encoding="UTF-8" standalone="no"?>
<svg
   xmlns:dc="http://purl.org/dc/elements/1.1/"
   xmlns:cc="http://web.resource.org/cc/"
   xmlns:rdf="http://www.w3.org/1999/02/22-rdf-syntax-ns#"
   xmlns:svg="http://www.w3.org/2000/svg"
   xmlns="http://www.w3.org/2000/svg"
   xmlns:sodipodi="http://sodipodi.sourceforge.net/DTD/sodipodi-0.dtd"
   xmlns:inkscape="http://www.inkscape.org/namespaces/inkscape"
   width="3000"
   height="2000"
   viewBox="0 -410 3080 1900"
   id="svg2"
   sodipodi:version="0.32"
   inkscape:version="0.45.1"
   sodipodi:docname="Mu_uc_lc.svg"
   inkscape:output_extension="org.inkscape.output.svg.inkscape"
   sodipodi:docbase="C:\Documents and Settings\Flanker\Desktop"
   version="1.0">
  <metadata
     id="metadata15">
    <rdf:RDF>
      <cc:Work
         rdf:about="">
        <dc:format>image/svg+xml</dc:format>
        <dc:type
           rdf:resource="http://purl.org/dc/dcmitype/StillImage" />
      </cc:Work>
    </rdf:RDF>
  </metadata>
  <defs
     id="defs13" />
  <sodipodi:namedview
     inkscape:window-height="1005"
     inkscape:window-width="1280"
     inkscape:pageshadow="2"
     inkscape:pageopacity="0.0"
     guidetolerance="10.0"
     gridtolerance="10.0"
     objecttolerance="10.0"
     borderopacity="1.0"
     bordercolor="#666666"
     pagecolor="#ffffff"
     id="base"
     inkscape:zoom="0.19947368"
     inkscape:cx="1605.3276"
     inkscape:cy="1351.0554"
     inkscape:window-x="-4"
     inkscape:window-y="-4"
     inkscape:current-layer="svg2"
     width="3000px"
     height="2000px"
     inkscape:showpageshadow="false" />
  <text
     xml:space="preserve"
     style="font-size:12px;font-style:normal;font-weight:normal;fill:#000000;fill-opacity:1;stroke:none;stroke-width:1px;stroke-linecap:butt;stroke-linejoin:miter;stroke-opacity:1;font-family:Lello"
     x="-471.24011"
     y="-946.41162"
     id="text2171"><tspan
       sodipodi:role="line"
       id="tspan2173"
       x="-471.24011"
       y="-946.41162"></tspan></text>
  <path
     style="font-size:2050.27807617px;font-style:normal;font-weight:normal;fill:#000000;fill-opacity:1;stroke:none;stroke-width:1px;stroke-linecap:butt;stroke-linejoin:miter;stroke-opacity:1;font-family:Times New Roman"
     d="M 1298.2314,-359.99997 L 1771.7575,-359.99997 L 1771.7575,-322.95882 L 1745.7286,-322.95882 C 1728.3746,-322.9575 1703.0131,-315.28231 1669.644,-299.93323 C 1636.2723,-284.58156 1605.9053,-262.55711 1578.5428,-233.85982 C 1551.1779,-205.16006 1517.4738,-158.44153 1477.4305,-93.704091 L 1150.0667,421.86877 L 1150.0667,762.24696 C 1150.0659,845.67314 1159.4096,897.73093 1178.0979,918.42049 C 1203.4585,946.45168 1243.503,960.46724 1298.2314,960.46721 L 1342.2803,960.46721 L 1342.2803,997.50836 L 765.6396,997.50836 L 765.6396,960.46721 L 813.69299,960.46721 C 871.08955,960.46724 911.80141,943.11465 935.8287,908.40936 C 950.51105,887.05241 957.85253,838.33166 957.85317,762.24696 L 957.85317,440.8899 L 585.43938,-127.74191 C 541.39022,-194.48154 511.52373,-236.19451 495.83983,-252.88095 C 480.15557,-269.56489 447.61945,-289.58712 398.23137,-312.94769 C 384.88314,-319.62046 365.52832,-322.9575 340.16686,-322.95882 L 340.16686,-359.99997 L 920.81201,-359.99997 L 920.81201,-322.95882 L 890.77864,-322.95882 C 859.40992,-322.9575 830.54454,-315.61601 804.18243,-300.93435 C 777.81934,-286.25008 764.63805,-264.22563 764.63849,-234.86093 C 764.63805,-210.83303 784.99398,-167.45154 825.70634,-104.71633 L 1109.0211,332.76977 L 1375.317,-85.695192 C 1415.3604,-148.43042 1435.3826,-195.14895 1435.3838,-225.85092 C 1435.3826,-244.53711 1430.5439,-261.2223 1420.8676,-275.90654 C 1411.1891,-290.58823 1397.3404,-302.10101 1379.3215,-310.44491 C 1361.3004,-318.7862 1334.2704,-322.9575 1298.2314,-322.95882 L 1298.2314,-359.99997 z M 2385.4393,53.459423 C 2506.2395,68.143334 2595.5053,119.20001 2653.2369,206.62961 C 2710.9668,294.06079 2739.8322,395.17304 2739.8331,509.96665 C 2739.8322,650.79013 2697.7855,771.92461 2613.693,873.37043 C 2529.5988,974.8165 2429.154,1025.5395 2312.3581,1025.5395 C 2247.6191,1025.5395 2188.5535,1008.02 2135.1613,972.98111 C 2081.7683,937.94224 2046.062,895.39501 2028.0422,845.33929 C 2010.022,795.28387 2001.012,724.87237 2001.0122,634.10458 L 2001.0122,302.7364 C 2001.012,242.67041 1995.339,201.62485 1983.9933,179.59958 C 1972.6472,157.57595 1951.6238,146.56372 1920.9232,146.56287 C 1876.2068,146.56372 1846.8409,191.28003 1832.8253,280.71193 L 1796.7853,280.71193 C 1805.4616,129.21113 1870.5338,53.460367 1992.0022,53.459423 C 2033.3813,53.460367 2067.5859,64.138888 2094.6162,85.495018 C 2121.6459,106.85297 2140.3333,131.3802 2150.6785,159.07678 C 2161.023,186.77503 2166.1954,237.33115 2166.1957,310.7453 L 2166.1957,647.11904 C 2166.1954,725.87348 2170.7004,785.10591 2179.7108,824.81648 C 2188.7204,864.52741 2209.0763,897.06352 2240.7786,922.42494 C 2272.48,947.7865 2307.3521,960.46724 2345.3949,960.46721 C 2409.4654,960.46724 2461.1895,923.25927 2500.5673,848.84318 C 2539.9436,774.42738 2559.6321,662.13606 2559.6329,511.96888 C 2559.6321,377.82044 2544.9492,278.87727 2515.5839,215.13907 C 2486.2173,151.40243 2440.8336,109.5226 2379.4327,89.499468 L 2385.4393,53.459423 z "
     id="text2175" />
</svg>
