<?xml version="1.0" encoding="UTF-8" standalone="no"?>
<svg
   xmlns:dc="http://purl.org/dc/elements/1.1/"
   xmlns:cc="http://web.resource.org/cc/"
   xmlns:rdf="http://www.w3.org/1999/02/22-rdf-syntax-ns#"
   xmlns:svg="http://www.w3.org/2000/svg"
   xmlns="http://www.w3.org/2000/svg"
   xmlns:sodipodi="http://sodipodi.sourceforge.net/DTD/sodipodi-0.dtd"
   xmlns:inkscape="http://www.inkscape.org/namespaces/inkscape"
   width="3000"
   height="2000"
   viewBox="0 -410 3080 1900"
   id="svg2"
   sodipodi:version="0.32"
   inkscape:version="0.45.1"
   sodipodi:docname="Mu_uc_lc.svg"
   inkscape:output_extension="org.inkscape.output.svg.inkscape"
   sodipodi:docbase="C:\Documents and Settings\Flanker\Desktop"
   version="1.0">
  <metadata
     id="metadata15">
    <rdf:RDF>
      <cc:Work
         rdf:about="">
        <dc:format>image/svg+xml</dc:format>
        <dc:type
           rdf:resource="http://purl.org/dc/dcmitype/StillImage" />
      </cc:Work>
    </rdf:RDF>
  </metadata>
  <defs
     id="defs13" />
  <sodipodi:namedview
     inkscape:window-height="1005"
     inkscape:window-width="1280"
     inkscape:pageshadow="2"
     inkscape:pageopacity="0.0"
     guidetolerance="10.0"
     gridtolerance="10.0"
     objecttolerance="10.0"
     borderopacity="1.0"
     bordercolor="#666666"
     pagecolor="#ffffff"
     id="base"
     inkscape:zoom="0.19947368"
     inkscape:cx="1540"
     inkscape:cy="1351.0554"
     inkscape:window-x="-4"
     inkscape:window-y="-4"
     inkscape:current-layer="svg2"
     width="3000px"
     height="2000px"
     inkscape:showpageshadow="false" />
  <text
     xml:space="preserve"
     style="font-size:12px;font-style:normal;font-weight:normal;fill:#000000;fill-opacity:1;stroke:none;stroke-width:1px;stroke-linecap:butt;stroke-linejoin:miter;stroke-opacity:1;font-family:Lello"
     x="-471.24011"
     y="-946.41162"
     id="text2171"><tspan
       sodipodi:role="line"
       id="tspan2173"
       x="-471.24011"
       y="-946.41162"></tspan></text>
  <path
     style="font-size:2050.27807617px;font-style:normal;font-weight:normal;fill:#000000;fill-opacity:1;stroke:none;stroke-width:1px;stroke-linecap:butt;stroke-linejoin:miter;stroke-opacity:1;font-family:Times New Roman"
     d="M 872.75863,244.67188 L 1373.3148,742.22471 C 1455.4048,824.3161 1525.4826,880.21148 1583.5484,909.91103 C 1641.6115,939.61076 1699.676,956.4628 1757.7419,960.46721 L 1757.7419,997.50836 L 1112.0245,997.50836 L 1112.0245,960.46721 C 1150.7333,960.46724 1178.5975,953.96002 1195.6174,940.94551 C 1212.6353,927.93112 1221.1448,913.41501 1221.1457,897.39713 C 1221.1448,881.37945 1217.9746,867.03018 1211.6352,854.3493 C 1205.2938,841.6687 1184.4374,817.97573 1149.0656,783.27032 L 680.54506,319.75531 L 680.54506,757.2414 C 680.54464,825.98462 684.88279,871.36833 693.55952,893.39268 C 700.23317,910.07797 714.24873,924.42723 735.60624,936.44051 C 764.30429,952.45835 794.67134,960.46724 826.70747,960.46721 L 872.75863,960.46721 L 872.75863,997.50836 L 294.1157,997.50836 L 294.1157,960.46721 L 342.16909,960.46721 C 398.23125,960.46724 438.94311,944.11576 464.3048,911.4127 C 480.32238,890.05574 488.33127,838.66536 488.33149,757.2414 L 488.33149,-119.73301 C 488.33127,-188.47487 483.99312,-234.19229 475.31703,-256.8854 C 468.64274,-272.90193 454.96089,-286.91749 434.27143,-298.93212 C 404.90532,-314.94861 374.20457,-322.9575 342.16909,-322.95882 L 294.1157,-322.95882 L 294.1157,-359.99997 L 872.75863,-359.99997 L 872.75863,-322.95882 L 826.70747,-322.95882 C 795.33874,-322.9575 764.9717,-315.28231 735.60624,-299.93323 C 714.91613,-289.25341 700.56687,-273.23563 692.55841,-251.87984 C 684.54909,-230.52155 680.54464,-186.47265 680.54506,-119.73301 L 680.54506,295.72861 C 693.8928,283.04857 739.61021,240.66819 817.69746,168.58734 C 1015.9169,-12.946685 1135.7166,-134.08116 1177.0968,-194.81644 C 1195.1159,-221.51155 1204.1259,-244.87081 1204.1268,-264.8943 C 1204.1259,-280.24341 1197.1181,-293.75842 1183.1035,-305.43935 C 1169.087,-317.11768 1145.394,-322.9575 1112.0245,-322.95882 L 1080.99,-322.95882 L 1080.99,-359.99997 L 1579.5439,-359.99997 L 1579.5439,-322.95882 C 1550.1767,-322.29009 1523.4804,-318.28564 1499.455,-310.94547 C 1475.427,-303.60268 1446.0611,-289.42027 1411.3571,-268.39819 C 1376.6507,-247.37359 1333.9366,-213.50266 1283.2147,-166.78529 C 1268.5307,-153.43598 1200.7888,-85.026701 1079.9889,38.442738 L 872.75863,244.67188 z M 2083.1034,53.459423 L 2083.1034,490.94552 L 2343.3926,215.63962 C 2446.8402,107.52038 2543.948,53.460367 2634.7163,53.459423 C 2670.088,53.460367 2698.6197,61.802962 2720.3114,78.487232 C 2742.0012,95.17334 2752.8466,116.86409 2752.8476,143.55953 C 2752.8466,169.58928 2744.3371,190.27892 2727.3192,205.6285 C 2710.2993,220.97967 2690.7777,228.65485 2668.7541,228.65408 C 2649.3984,228.65485 2623.7032,219.97855 2591.6685,202.62516 C 2559.6321,185.27336 2534.938,176.59706 2517.5862,176.59624 C 2482.8802,176.59706 2444.5043,199.28892 2402.4583,244.67188 L 2227.2636,433.88211 L 2557.6307,848.34262 C 2615.0269,920.42279 2691.1114,957.79761 2785.8843,960.46721 L 2785.8843,997.50836 L 2461.5239,997.50836 L 2083.1034,505.9622 L 2083.1034,997.50836 L 1916.9188,997.50836 L 1916.9188,436.88545 C 1916.9186,326.76376 1912.5805,257.52023 1903.9043,229.15464 C 1895.2279,200.79059 1875.5393,186.60818 1844.8387,186.60736 C 1826.1512,186.60818 1803.4593,191.61373 1776.7631,201.62405 L 1762.7475,165.58401 L 2039.0545,53.459423 L 2083.1034,53.459423 z "
     id="text2175" />
</svg>
